<svg id="Layer_1" data-name="Layer 1" xmlns="http://www.w3.org/2000/svg" viewBox="0 0 300 300"><title>COE_Mark_Light</title><path d="M290,117.41744v65.1595a27.155,27.155,0,0,1-27.15471,27.15457H37.149A27.15378,27.15378,0,0,1,10,182.57694v-65.1595A27.15249,27.15249,0,0,1,37.149,90.26849H262.84529A27.15371,27.15371,0,0,1,290,117.41744Z" fill="#ffe000"/><path d="M46.8516,148.19989a8.10555,8.10555,0,0,1,.66672-5.00951c1.56852-3.968,3.11287-7.94565,4.70661-11.90351,1.3726-3.40868,2.73341-4.29952,6.41849-4.30527,3.92392-.00612,7.85551.14822,11.76924-.05111a5.74121,5.74121,0,0,1,5.87159,5.27087c.1987,2.99894-1.91723,5.40843-5.2177,5.91556-2.72209.41827-5.46613.09371-8.198.19659-.97252.03661-2.05814-.18723-2.59633,1.03648.28229,1.29033,1.40355,1.19245,2.34307,1.40033a20.39259,20.39259,0,0,1,9.51134,4.50705c6.57464,5.9044,6.41576,17.17587-.30413,23.06577-4.84177,4.24373-10.63958,5.31639-16.8329,4.93711a23.24019,23.24019,0,0,1-5.89747-1.07038c-3.54274-1.1705-5.37847-4.16615-4.424-7.30741.93209-3.06761,3.97368-4.59514,7.48042-3.65523a21.1218,21.1218,0,0,0,6.73472.89158,10.94389,10.94389,0,0,0,3.19708-.66648,4.60993,4.60993,0,0,0,3.33587-4.215,4.664,4.664,0,0,0-2.82593-4.85488c-2.95672-1.46109-6.16-1.48174-9.35845-1.31463C50.60413,151.20506,48.34252,150.62919,46.8516,148.19989Z" fill="#00a3eb"/><path d="M233.44432,153.9559a27.42034,27.42034,0,0,1,4.45612,6.49062,14.3952,14.3952,0,0,1,1.2701,8.49651,5.4181,5.4181,0,0,1-10.57207.27383c-.48432-1.76061-.40077-3.60012-.93184-5.37009-.92314-3.0766-3.94354-5.89027-7.98684-4.752,0,2.78254.07214,5.66918-.01777,8.55079-.11952,3.83025-2.87925,6.17048-6.47409,5.59149a5.18759,5.18759,0,0,1-4.3297-3.68693,9.62628,9.62628,0,0,1-.36422-3.23925q.00525-16.2691-.00831-32.53818a9.23835,9.23835,0,0,1,.57435-3.749,5.5725,5.5725,0,0,1,5.53878-3.228,5.42371,5.42371,0,0,1,4.877,4.12722,13.209,13.209,0,0,1,.20358,3.26363c.00655,4.35017.00272,8.70035.00272,12.9938,4.38019.81917,6.72269-.354,8.3619-4.05686A22.90738,22.90738,0,0,1,229.552,139.926a5.23317,5.23317,0,0,1,9.58048,1.77494,9.88155,9.88155,0,0,1-2.45194,8.86185C235.70964,151.648,234.67167,152.67352,233.44432,153.9559Z" fill="#00a3eb"/><path d="M162.85553,140.842a9.11472,9.11472,0,0,1,3.07876-1.657,5.17908,5.17908,0,0,1,6.3675,5.00507c.09158,5.01085.084,10.02543.00837,15.03677-.061,4.044-.0596,8.03781,2.52205,11.29359a3.13134,3.13134,0,0,1-2.49753,2.51017,4.78275,4.78275,0,0,1-3.4968.115c-3.63361-1.75925-7.11984-.873-10.83718-.16671-6.88246,1.30769-12.66932-1.14431-16.72126-6.84629-4.11141-5.78567-4.41039-12.08864-.97382-18.27936,3.39839-6.12195,8.88911-8.90328,15.87391-8.73372A17.24233,17.24233,0,0,1,162.85553,140.842Zm-7.71842,21.86122a6.60149,6.60149,0,0,0,6.66986-6.4795,6.90521,6.90521,0,0,0-6.643-6.61652,6.78744,6.78744,0,0,0-6.49559,6.4492A6.55173,6.55173,0,0,0,155.13711,162.70317Z" fill="#00a3eb"/><path d="M116.47929,137.99118c-1.97821-.56838-4.09811.01032-6.146-.42079a5.545,5.545,0,0,1-4.67364-5.52879,5.37732,5.37732,0,0,1,5.41423-5.40337q11.08181-.15513,22.16716-.00633a5.44078,5.44078,0,0,1,5.51567,5.31487,5.34925,5.34925,0,0,1-5.1087,5.64954,48.91186,48.91186,0,0,1-5.27874.03433c-.94986,1.09529-.59384,2.13815-.59714,3.08742-.03066,8.83.00464,17.6603-.02844,26.49031-.01527,4.07434-2.63827,6.53962-6.31819,6.06282a5.12106,5.12106,0,0,1-4.62934-4.91211c-.05148-.72485-.02092-1.4558-.021-2.18394q-.00148-12.699-.01159-25.398A5.51233,5.51233,0,0,0,116.47929,137.99118Z" fill="#00a3eb"/><path d="M85.91461,137.53724c-.90865-.59164-2.02863-.053-3.27331-.81255.90931-2.79874,1.36881-5.87156,3.813-8.01232,2.6-2.27728,5.71653-2.31355,8.72725-1.15111a5.60043,5.60043,0,0,1,3.62754,5.58838c.01034,11.28449.069,22.56942-.01613,33.85325a6.0108,6.0108,0,0,1-6.11892,6.316,6.21179,6.21179,0,0,1-6.3971-6.39294c-.12159-5.36705-.03323-10.73884-.03411-16.10861-.00058-3.54951.01571-7.09914-.01124-10.64845C86.22483,139.2807,86.46452,138.34284,85.91461,137.53724Z" fill="#00a3eb"/><path d="M180.91861,146.28056c.00219-4.555-.05956-9.11112.02269-13.66465a5.37,5.37,0,0,1,5.43171-5.62712c3.287-.00944,5.49518,2.38623,5.51323,6.11525.03353,6.92346.00965,13.84719.00969,20.77081,0,.8199-.0029,1.63982.0005,2.4597.01753,4.23944,1.22891,5.59671,5.535,6.20509,3.23092.45647,5.19509,2.67616,5.03971,5.69536-.15375,2.988-2.35291,4.96377-5.66121,5.08623-7.81386.28922-13.56323-3.69044-15.49529-10.68189a16.13708,16.13708,0,0,1-.39512-4.33356Q180.906,152.2932,180.91861,146.28056Z" fill="#00a3eb"/><path d="M245.91126,150.343a1.37227,1.37227,0,0,1-.65734-2.57739l5.48814-2.98846a1.37213,1.37213,0,0,1,1.31228,2.41017l-5.48814,2.98847A1.36736,1.36736,0,0,1,245.91126,150.343Z" fill="#00a3eb"/><path d="M254.20913,157.07429h-6.24919a1.372,1.372,0,1,1,0-2.74408h6.24919a1.372,1.372,0,1,1,0,2.74408Z" fill="#00a3eb"/><path d="M251.20887,166.76857a1.36444,1.36444,0,0,1-.68467-.1841l-5.41191-3.12459a1.372,1.372,0,0,1,1.372-2.37641l5.4119,3.1246a1.37222,1.37222,0,0,1-.68736,2.5605Z" fill="#00a3eb"/></svg>